<?xml version="1.0" encoding="utf-8"?>
<!-- Generator: Adobe Illustrator 25.4.1, SVG Export Plug-In . SVG Version: 6.00 Build 0)  -->
<svg version="1.1" id="Layer_1" xmlns="http://www.w3.org/2000/svg" xmlns:xlink="http://www.w3.org/1999/xlink" x="0px" y="0px"
	 viewBox="0 0 1366 768" style="enable-background:new 0 0 1366 768;" xml:space="preserve">
<style type="text/css">
	.st0{fill:url(#SVGID_1_);}
	.st1{fill:url(#SVGID_00000056407478637512879270000007298323935529807525_);}
</style>
<g>
	
		<radialGradient id="SVGID_1_" cx="411.1271" cy="574.2704" r="179.6855" fx="410.488" fy="579.8321" gradientTransform="matrix(5.1597 0 0 2.2655 -1439.5552 -910.7256)" gradientUnits="userSpaceOnUse">
		<stop  offset="0" style="stop-color:#FFFFFF"/>
		<stop  offset="0.138" style="stop-color:#FFFDFC"/>
		<stop  offset="0.247" style="stop-color:#FFF9F2"/>
		<stop  offset="0.3462" style="stop-color:#FFF1E1"/>
		<stop  offset="0.4395" style="stop-color:#FFE5CA"/>
		<stop  offset="0.5288" style="stop-color:#FFD7AB"/>
		<stop  offset="0.6149" style="stop-color:#FFC586"/>
		<stop  offset="0.6986" style="stop-color:#FFAF59"/>
		<stop  offset="0.7784" style="stop-color:#FF9727"/>
		<stop  offset="0.7919" style="stop-color:#FF931E"/>
	</radialGradient>
	<path class="st0" d="M1304.8,768H52.2C23.4,768,0,744.6,0,715.8L0,52.2C0,23.4,23.4,0,52.2,0h1252.6c28.8,0,52.2,23.4,52.2,52.2
		v663.6C1357,744.6,1333.6,768,1304.8,768z"/>
	
		<radialGradient id="SVGID_00000078765972928695690430000004255501041931650198_" cx="678.5" cy="384" r="551.2795" gradientTransform="matrix(1 0 0 1.0147 0 -5.6595)" gradientUnits="userSpaceOnUse">
		<stop  offset="0" style="stop-color:#FFFFFF"/>
		<stop  offset="0.138" style="stop-color:#FFFDFC"/>
		<stop  offset="0.247" style="stop-color:#FFF9F2"/>
		<stop  offset="0.3462" style="stop-color:#FFF1E1"/>
		<stop  offset="0.4395" style="stop-color:#FFE5CA"/>
		<stop  offset="0.5288" style="stop-color:#FFD7AB"/>
		<stop  offset="0.6149" style="stop-color:#FFC586"/>
		<stop  offset="0.6986" style="stop-color:#FFAF59"/>
		<stop  offset="0.7784" style="stop-color:#FF9727"/>
		<stop  offset="0.7919" style="stop-color:#FF931E"/>
	</radialGradient>
	<path style="fill:url(#SVGID_00000078765972928695690430000004255501041931650198_);" d="M1304.8,1c28.2,0,51.2,23,51.2,51.2v663.6
		c0,28.2-23,51.2-51.2,51.2H52.2C24,767,1,744,1,715.8V52.2C1,24,24,1,52.2,1H1304.8 M1304.8,0H52.2C23.4,0,0,23.4,0,52.2v663.6
		C0,744.6,23.4,768,52.2,768h1252.6c28.8,0,52.2-23.4,52.2-52.2V52.2C1357,23.4,1333.6,0,1304.8,0L1304.8,0z"/>
</g>
</svg>
